<svg xmlns="http://www.w3.org/2000/svg"
     width="80" height="80"
     viewBox="0 0 24 24">
  <path id="Imported Path #2"
        fill="none" stroke="#00c7ff" stroke-width="1" opacity="0.4"
        d="M 7.91,7.00
           C 7.91,7.55 7.46,8.00 6.91,8.00
             6.36,8.00 5.91,7.55 5.91,7.00
             5.91,6.45 6.36,6.00 6.91,6.00
             7.46,6.00 7.91,6.45 7.91,7.00 Z
           M 30.61,17.09M 7.96,17.00
           C 7.96,17.55 7.51,18.00 6.96,18.00
             6.41,18.00 5.96,17.55 5.96,17.00
             5.96,16.45 6.41,16.00 6.96,16.00
             7.51,16.00 7.96,16.45 7.96,17.00 Z
           M 19.00,15.00
           C 19.00,15.00 19.00,19.00 19.00,19.00
             19.00,19.00 5.00,19.00 5.00,19.00
             5.00,19.00 5.00,15.00 5.00,15.00
             5.00,15.00 19.00,15.00 19.00,15.00M 20.00,13.00
           C 20.00,13.00 4.00,13.00 4.00,13.00
             3.45,13.00 2.83,12.83 3.00,14.00
             3.00,14.00 3.00,20.00 3.00,20.00
             3.00,21.00 4.00,21.00 4.00,21.00
             4.00,21.00 20.00,21.00 20.00,21.00
             20.55,21.00 21.00,20.55 21.00,20.00
             21.00,20.00 21.00,14.00 21.00,14.00
             21.00,13.45 20.55,13.00 20.00,13.00 Z
           M 19.00,5.00
           C 19.00,5.00 19.00,9.00 19.00,9.00
             19.00,9.00 5.00,9.00 5.00,9.00
             5.00,9.00 5.00,5.00 5.00,5.00
             5.00,5.00 19.00,5.00 19.00,5.00M 20.00,3.00
           C 20.00,3.00 4.00,3.00 4.00,3.00
             3.45,3.00 2.87,2.87 3.00,4.00
             3.00,4.00 3.00,10.00 3.00,10.00
             3.00,11.00 4.00,11.00 4.00,11.00
             4.00,11.00 20.00,11.00 20.00,11.00
             20.55,11.00 21.00,10.55 21.00,10.00
             21.00,10.00 21.00,4.00 21.00,4.00
             21.00,3.45 20.55,3.00 20.00,3.00 Z" />
</svg>