<svg xmlns="http://www.w3.org/2000/svg"
     width="80" height="80"
     viewBox="0 0 24 24">
  <path id="Imported Path"
        fill="none" stroke="#00c7ff" stroke-width="1" opacity="0.6"
        d="M 21.81,12.74
           C 21.81,12.74 20.99,12.11 20.99,12.11
             20.99,12.02 20.99,11.98 20.99,11.89
             20.99,11.89 21.79,11.26 21.79,11.26
             21.95,11.14 21.99,10.92 21.89,10.75
             21.89,10.75 21.04,9.27 21.04,9.27
             20.97,9.14 20.83,9.07 20.69,9.07
             20.64,9.07 20.59,9.08 20.54,9.10
             20.54,9.10 19.59,9.48 19.59,9.48
             19.51,9.43 19.48,9.41 19.40,9.37
             19.40,9.37 19.25,8.36 19.25,8.36
             19.22,8.15 19.05,8.00 18.85,8.00
             18.85,8.00 17.14,8.00 17.14,8.00
             16.94,8.00 16.77,8.15 16.74,8.34
             16.74,8.34 16.60,9.35 16.60,9.35
             16.57,9.37 16.53,9.38 16.50,9.40
             16.47,9.42 16.44,9.44 16.41,9.46
             16.41,9.46 15.46,9.08 15.46,9.08
             15.41,9.06 15.36,9.05 15.31,9.05
             15.17,9.05 15.04,9.12 14.96,9.25
             14.96,9.25 14.11,10.73 14.11,10.73
             14.01,10.90 14.05,11.12 14.21,11.24
             14.21,11.24 15.01,11.87 15.01,11.87
             15.01,11.96 15.01,12.00 15.01,12.10
             15.01,12.10 14.21,12.73 14.21,12.73
             14.05,12.85 14.01,13.07 14.11,13.24
             14.11,13.24 14.96,14.72 14.96,14.72
             15.03,14.85 15.17,14.92 15.31,14.92
             15.36,14.92 15.41,14.91 15.46,14.89
             15.46,14.89 16.41,14.52 16.41,14.52
             16.49,14.57 16.53,14.59 16.61,14.63
             16.61,14.63 16.76,15.64 16.76,15.64
             16.79,15.84 16.96,15.98 17.16,15.98
             17.16,15.98 18.87,15.98 18.87,15.98
             19.07,15.98 19.24,15.83 19.27,15.64
             19.27,15.64 19.42,14.63 19.42,14.63
             19.45,14.61 19.49,14.60 19.52,14.58
             19.55,14.56 19.58,14.54 19.61,14.52
             19.61,14.52 20.56,14.90 20.56,14.90
             20.61,14.92 20.66,14.93 20.71,14.93
             20.85,14.93 20.98,14.86 21.06,14.73
             21.06,14.73 21.91,13.25 21.91,13.25
             22.01,13.08 21.97,12.86 21.81,12.74 Z
           M 18.00,13.50
           C 17.17,13.50 16.50,12.83 16.50,12.00
             16.50,11.17 17.17,10.50 18.00,10.50
             18.83,10.50 19.50,11.17 19.50,12.00
             19.50,12.83 18.83,13.50 18.00,13.50 Z
           M 17.00,18.00
           C 17.00,18.00 7.00,18.00 7.00,18.00
             7.00,18.00 7.00,6.00 7.00,6.00
             7.00,6.00 17.00,6.00 17.00,6.00
             17.00,6.00 17.00,7.00 17.00,7.00
             17.00,7.00 19.00,7.00 19.00,7.00
             19.00,7.00 19.00,3.00 19.00,3.00
             19.00,1.90 18.10,1.00 17.00,1.00
             17.00,1.00 7.00,1.00 7.00,1.00
             5.90,1.00 5.00,1.90 5.00,3.00
             5.00,3.00 5.00,21.00 5.00,21.00
             5.00,22.10 5.90,23.00 7.00,23.00
             7.00,23.00 17.00,23.00 17.00,23.00
             18.10,23.00 19.00,22.10 19.00,21.00
             19.00,21.00 19.00,17.00 19.00,17.00
             19.00,17.00 17.00,17.00 17.00,17.00
             17.00,17.00 17.00,18.00 17.00,18.00 Z
           M 7.00,3.00
           C 7.00,3.00 17.00,3.00 17.00,3.00
             17.00,3.00 17.00,4.00 17.00,4.00
             17.00,4.00 7.00,4.00 7.00,4.00
             7.00,4.00 7.00,3.00 7.00,3.00 Z
           M 17.00,21.00
           C 17.00,21.00 7.00,21.00 7.00,21.00
             7.00,21.00 7.00,20.00 7.00,20.00
             7.00,20.00 17.00,20.00 17.00,20.00
             17.00,20.00 17.00,21.00 17.00,21.00 Z" />
</svg>